<mxfile host="app.diagrams.net" modified="2022-12-01T03:09:29.768Z" agent="5.0 (Macintosh; Intel Mac OS X 10_15_7) AppleWebKit/537.36 (KHTML, like Gecko) Chrome/107.0.0.0 Safari/537.36" etag="HTblLRnwBtvv3IL_Czs5" version="20.6.0" type="github" pages="3">
  <diagram name="Page-1" id="b5b7bab2-c9e2-2cf4-8b2a-24fd1a2a6d21">
    <mxGraphModel dx="844" dy="628" grid="1" gridSize="10" guides="1" tooltips="1" connect="1" arrows="1" fold="1" page="1" pageScale="1" pageWidth="827" pageHeight="1169" background="none" math="0" shadow="0">
      <root>
        <mxCell id="0" />
        <mxCell id="1" parent="0" />
        <mxCell id="6e0c8c40b5770093-72" value="" style="shape=folder;fontStyle=1;spacingTop=10;tabWidth=194;tabHeight=22;tabPosition=left;html=1;rounded=0;shadow=0;comic=0;labelBackgroundColor=none;strokeWidth=1;fillColor=none;fontFamily=Verdana;fontSize=10;align=center;" parent="1" vertex="1">
          <mxGeometry x="326.5" y="114.5" width="1001" height="940" as="geometry" />
        </mxCell>
        <mxCell id="6e0c8c40b5770093-6" value="" style="group" parent="1" vertex="1" connectable="0">
          <mxGeometry x="465.5" y="174.5" width="130" height="70" as="geometry" />
        </mxCell>
        <mxCell id="6e0c8c40b5770093-4" value="package" style="shape=folder;fontStyle=1;spacingTop=10;tabWidth=50;tabHeight=17;tabPosition=left;html=1;rounded=0;shadow=0;comic=0;labelBackgroundColor=none;strokeWidth=1;fontFamily=Verdana;fontSize=10;align=center;" parent="6e0c8c40b5770093-6" vertex="1">
          <mxGeometry width="130" height="70" as="geometry" />
        </mxCell>
        <mxCell id="6e0c8c40b5770093-5" value="" style="triangle;whiteSpace=wrap;html=1;rounded=0;shadow=0;comic=0;labelBackgroundColor=none;strokeWidth=1;fontFamily=Verdana;fontSize=10;align=center;rotation=-90;" parent="6e0c8c40b5770093-6" vertex="1">
          <mxGeometry x="100" y="25" width="15" height="20" as="geometry" />
        </mxCell>
        <mxCell id="6e0c8c40b5770093-7" value="" style="group" parent="1" vertex="1" connectable="0">
          <mxGeometry x="765.5" y="174.5" width="130" height="70" as="geometry" />
        </mxCell>
        <mxCell id="6e0c8c40b5770093-8" value="package" style="shape=folder;fontStyle=1;spacingTop=10;tabWidth=50;tabHeight=17;tabPosition=left;html=1;rounded=0;shadow=0;comic=0;labelBackgroundColor=none;strokeWidth=1;fontFamily=Verdana;fontSize=10;align=center;" parent="6e0c8c40b5770093-7" vertex="1">
          <mxGeometry width="130" height="70" as="geometry" />
        </mxCell>
        <mxCell id="6e0c8c40b5770093-9" value="" style="triangle;whiteSpace=wrap;html=1;rounded=0;shadow=0;comic=0;labelBackgroundColor=none;strokeWidth=1;fontFamily=Verdana;fontSize=10;align=center;rotation=-90;" parent="6e0c8c40b5770093-7" vertex="1">
          <mxGeometry x="100" y="25" width="15" height="20" as="geometry" />
        </mxCell>
        <mxCell id="6e0c8c40b5770093-18" value="" style="group" parent="1" vertex="1" connectable="0">
          <mxGeometry x="361.5" y="294.5" width="280" height="130" as="geometry" />
        </mxCell>
        <mxCell id="6e0c8c40b5770093-11" value="" style="shape=folder;fontStyle=1;spacingTop=10;tabWidth=123;tabHeight=24;tabPosition=left;html=1;rounded=0;shadow=0;comic=0;labelBackgroundColor=none;strokeWidth=1;fontFamily=Verdana;fontSize=10;align=center;" parent="6e0c8c40b5770093-18" vertex="1">
          <mxGeometry width="280" height="130" as="geometry" />
        </mxCell>
        <mxCell id="6e0c8c40b5770093-13" value="" style="triangle;whiteSpace=wrap;html=1;rounded=0;shadow=0;comic=0;labelBackgroundColor=none;strokeWidth=1;fontFamily=Verdana;fontSize=10;align=center;rotation=-90;" parent="6e0c8c40b5770093-18" vertex="1">
          <mxGeometry x="96" y="2" width="15" height="20" as="geometry" />
        </mxCell>
        <mxCell id="6e0c8c40b5770093-15" value="package" style="shape=folder;fontStyle=1;spacingTop=10;tabWidth=50;tabHeight=17;tabPosition=left;html=1;rounded=0;shadow=0;comic=0;labelBackgroundColor=none;strokeWidth=1;fontFamily=Verdana;fontSize=10;align=center;" parent="6e0c8c40b5770093-18" vertex="1">
          <mxGeometry x="18" y="40" width="112" height="70" as="geometry" />
        </mxCell>
        <mxCell id="6e0c8c40b5770093-17" value="package" style="shape=folder;fontStyle=1;spacingTop=10;tabWidth=50;tabHeight=17;tabPosition=left;html=1;rounded=0;shadow=0;comic=0;labelBackgroundColor=none;strokeWidth=1;fontFamily=Verdana;fontSize=10;align=center;" parent="6e0c8c40b5770093-18" vertex="1">
          <mxGeometry x="148" y="40" width="112" height="70" as="geometry" />
        </mxCell>
        <mxCell id="6e0c8c40b5770093-19" value="" style="group" parent="1" vertex="1" connectable="0">
          <mxGeometry x="685.5" y="298.5" width="280" height="130" as="geometry" />
        </mxCell>
        <mxCell id="6e0c8c40b5770093-20" value="" style="shape=folder;fontStyle=1;spacingTop=10;tabWidth=123;tabHeight=24;tabPosition=left;html=1;rounded=0;shadow=0;comic=0;labelBackgroundColor=none;strokeWidth=1;fontFamily=Verdana;fontSize=10;align=center;" parent="6e0c8c40b5770093-19" vertex="1">
          <mxGeometry width="280" height="130" as="geometry" />
        </mxCell>
        <mxCell id="6e0c8c40b5770093-21" value="" style="triangle;whiteSpace=wrap;html=1;rounded=0;shadow=0;comic=0;labelBackgroundColor=none;strokeWidth=1;fontFamily=Verdana;fontSize=10;align=center;rotation=-90;" parent="6e0c8c40b5770093-19" vertex="1">
          <mxGeometry x="96" y="2" width="15" height="20" as="geometry" />
        </mxCell>
        <mxCell id="6e0c8c40b5770093-22" value="package" style="shape=folder;fontStyle=1;spacingTop=10;tabWidth=50;tabHeight=17;tabPosition=left;html=1;rounded=0;shadow=0;comic=0;labelBackgroundColor=none;strokeWidth=1;fontFamily=Verdana;fontSize=10;align=center;" parent="6e0c8c40b5770093-19" vertex="1">
          <mxGeometry x="18" y="40" width="112" height="70" as="geometry" />
        </mxCell>
        <mxCell id="6e0c8c40b5770093-23" value="package" style="shape=folder;fontStyle=1;spacingTop=10;tabWidth=50;tabHeight=17;tabPosition=left;html=1;rounded=0;shadow=0;comic=0;labelBackgroundColor=none;strokeWidth=1;fontFamily=Verdana;fontSize=10;align=center;" parent="6e0c8c40b5770093-19" vertex="1">
          <mxGeometry x="148" y="40" width="112" height="70" as="geometry" />
        </mxCell>
        <mxCell id="6e0c8c40b5770093-30" value="" style="group" parent="1" vertex="1" connectable="0">
          <mxGeometry x="1045.5" y="294.5" width="230" height="480" as="geometry" />
        </mxCell>
        <mxCell id="6e0c8c40b5770093-24" value="" style="group" parent="6e0c8c40b5770093-30" vertex="1" connectable="0">
          <mxGeometry width="230" height="480" as="geometry" />
        </mxCell>
        <mxCell id="6e0c8c40b5770093-25" value="" style="shape=folder;fontStyle=1;spacingTop=10;tabWidth=123;tabHeight=24;tabPosition=left;html=1;rounded=0;shadow=0;comic=0;labelBackgroundColor=none;strokeWidth=1;fontFamily=Verdana;fontSize=10;align=center;" parent="6e0c8c40b5770093-24" vertex="1">
          <mxGeometry width="230" height="480" as="geometry" />
        </mxCell>
        <mxCell id="6e0c8c40b5770093-29" value="" style="triangle;whiteSpace=wrap;html=1;rounded=0;shadow=0;comic=0;labelBackgroundColor=none;strokeWidth=1;fontFamily=Verdana;fontSize=10;align=center;rotation=-90;" parent="6e0c8c40b5770093-24" vertex="1">
          <mxGeometry x="100" y="2" width="15" height="20" as="geometry" />
        </mxCell>
        <mxCell id="6e0c8c40b5770093-27" value="package" style="shape=folder;fontStyle=1;spacingTop=10;tabWidth=50;tabHeight=17;tabPosition=left;html=1;rounded=0;shadow=0;comic=0;labelBackgroundColor=none;strokeWidth=1;fontFamily=Verdana;fontSize=10;align=center;" parent="6e0c8c40b5770093-24" vertex="1">
          <mxGeometry x="59" y="79" width="112" height="70" as="geometry" />
        </mxCell>
        <mxCell id="6e0c8c40b5770093-31" value="package" style="shape=folder;fontStyle=1;spacingTop=10;tabWidth=50;tabHeight=17;tabPosition=left;html=1;rounded=0;shadow=0;comic=0;labelBackgroundColor=none;strokeWidth=1;fontFamily=Verdana;fontSize=10;align=center;" parent="6e0c8c40b5770093-24" vertex="1">
          <mxGeometry x="59" y="205" width="112" height="70" as="geometry" />
        </mxCell>
        <mxCell id="6e0c8c40b5770093-28" value="package" style="shape=folder;fontStyle=1;spacingTop=10;tabWidth=50;tabHeight=17;tabPosition=left;html=1;rounded=0;shadow=0;comic=0;labelBackgroundColor=none;strokeWidth=1;fontFamily=Verdana;fontSize=10;align=center;" parent="6e0c8c40b5770093-24" vertex="1">
          <mxGeometry x="59" y="340" width="112" height="70" as="geometry" />
        </mxCell>
        <mxCell id="6e0c8c40b5770093-67" style="edgeStyle=none;rounded=0;html=1;entryX=0.43;entryY=0.173;entryPerimeter=0;dashed=1;labelBackgroundColor=none;startFill=0;endArrow=open;endFill=0;endSize=10;fontFamily=Verdana;fontSize=10;" parent="1" source="6e0c8c40b5770093-33" target="6e0c8c40b5770093-47" edge="1">
          <mxGeometry relative="1" as="geometry" />
        </mxCell>
        <mxCell id="6e0c8c40b5770093-71" style="edgeStyle=elbowEdgeStyle;rounded=0;html=1;dashed=1;labelBackgroundColor=none;startFill=0;endArrow=open;endFill=0;endSize=10;fontFamily=Verdana;fontSize=10;elbow=vertical;" parent="1" source="6e0c8c40b5770093-33" target="6e0c8c40b5770093-25" edge="1">
          <mxGeometry relative="1" as="geometry" />
        </mxCell>
        <mxCell id="6e0c8c40b5770093-33" value="" style="shape=folder;fontStyle=1;spacingTop=10;tabWidth=123;tabHeight=24;tabPosition=left;html=1;rounded=0;shadow=0;comic=0;labelBackgroundColor=none;strokeColor=#000000;strokeWidth=1;fillColor=#ffffff;fontFamily=Verdana;fontSize=10;fontColor=#000000;align=center;" parent="1" vertex="1">
          <mxGeometry x="440.5" y="474.5" width="515" height="240" as="geometry" />
        </mxCell>
        <mxCell id="6e0c8c40b5770093-64" style="edgeStyle=elbowEdgeStyle;rounded=0;html=1;entryX=0.559;entryY=0.251;entryPerimeter=0;dashed=1;labelBackgroundColor=none;startFill=0;endArrow=open;endFill=0;endSize=10;fontFamily=Verdana;fontSize=10;" parent="1" source="6e0c8c40b5770093-42" target="6e0c8c40b5770093-44" edge="1">
          <mxGeometry relative="1" as="geometry" />
        </mxCell>
        <mxCell id="6e0c8c40b5770093-65" style="edgeStyle=none;rounded=0;html=1;dashed=1;labelBackgroundColor=none;startFill=0;endArrow=open;endFill=0;endSize=10;fontFamily=Verdana;fontSize=10;entryX=-0.003;entryY=0.411;entryPerimeter=0;" parent="1" source="6e0c8c40b5770093-42" target="6e0c8c40b5770093-45" edge="1">
          <mxGeometry relative="1" as="geometry" />
        </mxCell>
        <mxCell id="6e0c8c40b5770093-66" style="edgeStyle=none;rounded=0;html=1;dashed=1;labelBackgroundColor=none;startFill=0;endArrow=open;endFill=0;endSize=10;fontFamily=Verdana;fontSize=10;entryX=1.013;entryY=0.444;entryPerimeter=0;" parent="1" source="6e0c8c40b5770093-42" target="6e0c8c40b5770093-43" edge="1">
          <mxGeometry relative="1" as="geometry" />
        </mxCell>
        <mxCell id="6e0c8c40b5770093-42" value="package" style="shape=folder;fontStyle=1;spacingTop=10;tabWidth=50;tabHeight=17;tabPosition=left;html=1;rounded=0;shadow=0;comic=0;labelBackgroundColor=none;strokeColor=#000000;strokeWidth=1;fillColor=#ffffff;fontFamily=Verdana;fontSize=10;fontColor=#000000;align=center;" parent="1" vertex="1">
          <mxGeometry x="647.5" y="524.5" width="112" height="70" as="geometry" />
        </mxCell>
        <mxCell id="6e0c8c40b5770093-43" value="package" style="shape=folder;fontStyle=1;spacingTop=10;tabWidth=50;tabHeight=17;tabPosition=left;html=1;rounded=0;shadow=0;comic=0;labelBackgroundColor=none;strokeColor=#000000;strokeWidth=1;fillColor=#ffffff;fontFamily=Verdana;fontSize=10;fontColor=#000000;align=center;" parent="1" vertex="1">
          <mxGeometry x="483.5" y="624.5" width="112" height="70" as="geometry" />
        </mxCell>
        <mxCell id="6e0c8c40b5770093-44" value="package" style="shape=folder;fontStyle=1;spacingTop=10;tabWidth=50;tabHeight=17;tabPosition=left;html=1;rounded=0;shadow=0;comic=0;labelBackgroundColor=none;strokeColor=#000000;strokeWidth=1;fillColor=#ffffff;fontFamily=Verdana;fontSize=10;fontColor=#000000;align=center;" parent="1" vertex="1">
          <mxGeometry x="647.5" y="624.5" width="112" height="70" as="geometry" />
        </mxCell>
        <mxCell id="6e0c8c40b5770093-45" value="package" style="shape=folder;fontStyle=1;spacingTop=10;tabWidth=50;tabHeight=17;tabPosition=left;html=1;rounded=0;shadow=0;comic=0;labelBackgroundColor=none;strokeColor=#000000;strokeWidth=1;fillColor=#ffffff;fontFamily=Verdana;fontSize=10;fontColor=#000000;align=center;" parent="1" vertex="1">
          <mxGeometry x="799.5" y="624.5" width="112" height="70" as="geometry" />
        </mxCell>
        <mxCell id="6e0c8c40b5770093-68" style="edgeStyle=elbowEdgeStyle;rounded=0;html=1;entryX=0.628;entryY=0.26;entryPerimeter=0;dashed=1;labelBackgroundColor=none;startFill=0;endArrow=open;endFill=0;endSize=10;fontFamily=Verdana;fontSize=10;" parent="1" source="6e0c8c40b5770093-47" target="6e0c8c40b5770093-53" edge="1">
          <mxGeometry relative="1" as="geometry" />
        </mxCell>
        <mxCell id="6e0c8c40b5770093-69" style="edgeStyle=elbowEdgeStyle;rounded=0;html=1;entryX=0.643;entryY=0.246;entryPerimeter=0;dashed=1;labelBackgroundColor=none;startFill=0;endArrow=open;endFill=0;endSize=10;fontFamily=Verdana;fontSize=10;" parent="1" source="6e0c8c40b5770093-47" target="6e0c8c40b5770093-56" edge="1">
          <mxGeometry relative="1" as="geometry" />
        </mxCell>
        <mxCell id="6e0c8c40b5770093-70" style="edgeStyle=none;rounded=0;html=1;dashed=1;labelBackgroundColor=none;startFill=0;endArrow=open;endFill=0;endSize=10;fontFamily=Verdana;fontSize=10;exitX=1.003;exitY=0.363;exitPerimeter=0;" parent="1" source="6e0c8c40b5770093-47" target="6e0c8c40b5770093-25" edge="1">
          <mxGeometry relative="1" as="geometry" />
        </mxCell>
        <mxCell id="6e0c8c40b5770093-47" value="" style="shape=folder;fontStyle=1;spacingTop=10;tabWidth=123;tabHeight=24;tabPosition=left;html=1;rounded=0;shadow=0;comic=0;labelBackgroundColor=none;strokeWidth=1;fontFamily=Verdana;fontSize=10;align=center;" parent="1" vertex="1">
          <mxGeometry x="553.5" y="774.5" width="332" height="130" as="geometry" />
        </mxCell>
        <mxCell id="6e0c8c40b5770093-48" value="" style="triangle;whiteSpace=wrap;html=1;rounded=0;shadow=0;comic=0;labelBackgroundColor=none;strokeWidth=1;fontFamily=Verdana;fontSize=10;align=center;rotation=-90;" parent="1" vertex="1">
          <mxGeometry x="649.5" y="776.5" width="15" height="20" as="geometry" />
        </mxCell>
        <mxCell id="6e0c8c40b5770093-49" value="package" style="shape=folder;fontStyle=1;spacingTop=10;tabWidth=50;tabHeight=17;tabPosition=left;html=1;rounded=0;shadow=0;comic=0;labelBackgroundColor=none;strokeWidth=1;fontFamily=Verdana;fontSize=10;align=center;" parent="1" vertex="1">
          <mxGeometry x="571.5" y="814.5" width="112" height="70" as="geometry" />
        </mxCell>
        <mxCell id="6e0c8c40b5770093-50" value="package" style="shape=folder;fontStyle=1;spacingTop=10;tabWidth=50;tabHeight=17;tabPosition=left;html=1;rounded=0;shadow=0;comic=0;labelBackgroundColor=none;strokeWidth=1;fontFamily=Verdana;fontSize=10;align=center;" parent="1" vertex="1">
          <mxGeometry x="740.5" y="814.5" width="112" height="70" as="geometry" />
        </mxCell>
        <mxCell id="6e0c8c40b5770093-51" value="" style="triangle;whiteSpace=wrap;html=1;rounded=0;shadow=0;comic=0;labelBackgroundColor=none;strokeColor=#000000;strokeWidth=1;fillColor=#ffffff;fontFamily=Verdana;fontSize=10;fontColor=#000000;align=center;rotation=-90;" parent="1" vertex="1">
          <mxGeometry x="538.5" y="476.5" width="15" height="20" as="geometry" />
        </mxCell>
        <mxCell id="6e0c8c40b5770093-52" value="" style="group" parent="1" vertex="1" connectable="0">
          <mxGeometry x="576.5" y="954.5694795496323" width="130" height="70" as="geometry" />
        </mxCell>
        <mxCell id="6e0c8c40b5770093-53" value="package" style="shape=folder;fontStyle=1;spacingTop=10;tabWidth=50;tabHeight=17;tabPosition=left;html=1;rounded=0;shadow=0;comic=0;labelBackgroundColor=none;strokeWidth=1;fontFamily=Verdana;fontSize=10;align=center;" parent="6e0c8c40b5770093-52" vertex="1">
          <mxGeometry width="130" height="70" as="geometry" />
        </mxCell>
        <mxCell id="6e0c8c40b5770093-54" value="" style="triangle;whiteSpace=wrap;html=1;rounded=0;shadow=0;comic=0;labelBackgroundColor=none;strokeWidth=1;fontFamily=Verdana;fontSize=10;align=center;rotation=-90;" parent="6e0c8c40b5770093-52" vertex="1">
          <mxGeometry x="100" y="25" width="15" height="20" as="geometry" />
        </mxCell>
        <mxCell id="6e0c8c40b5770093-55" value="" style="group" parent="1" vertex="1" connectable="0">
          <mxGeometry x="743.5" y="954.5694795496323" width="130" height="70" as="geometry" />
        </mxCell>
        <mxCell id="6e0c8c40b5770093-56" value="package" style="shape=folder;fontStyle=1;spacingTop=10;tabWidth=50;tabHeight=17;tabPosition=left;html=1;rounded=0;shadow=0;comic=0;labelBackgroundColor=none;strokeWidth=1;fontFamily=Verdana;fontSize=10;align=center;" parent="6e0c8c40b5770093-55" vertex="1">
          <mxGeometry width="130" height="70" as="geometry" />
        </mxCell>
        <mxCell id="6e0c8c40b5770093-57" value="" style="triangle;whiteSpace=wrap;html=1;rounded=0;shadow=0;comic=0;labelBackgroundColor=none;strokeWidth=1;fontFamily=Verdana;fontSize=10;align=center;rotation=-90;" parent="6e0c8c40b5770093-55" vertex="1">
          <mxGeometry x="100" y="25" width="15" height="20" as="geometry" />
        </mxCell>
        <mxCell id="6e0c8c40b5770093-58" style="rounded=0;html=1;dashed=1;labelBackgroundColor=none;startFill=0;endArrow=open;endFill=0;endSize=10;fontFamily=Verdana;fontSize=10;entryX=0.592;entryY=0.2;entryPerimeter=0;edgeStyle=elbowEdgeStyle;" parent="1" source="6e0c8c40b5770093-4" target="6e0c8c40b5770093-11" edge="1">
          <mxGeometry relative="1" as="geometry" />
        </mxCell>
        <mxCell id="6e0c8c40b5770093-59" style="rounded=0;html=1;dashed=1;labelBackgroundColor=none;startFill=0;endArrow=open;endFill=0;endSize=10;fontFamily=Verdana;fontSize=10;entryX=0.592;entryY=0.2;entryPerimeter=0;edgeStyle=elbowEdgeStyle;" parent="1" edge="1">
          <mxGeometry relative="1" as="geometry">
            <mxPoint x="843.3275862068965" y="244.5" as="sourcePoint" />
            <mxPoint x="843.3275862068965" y="320.84482758620686" as="targetPoint" />
          </mxGeometry>
        </mxCell>
        <mxCell id="6e0c8c40b5770093-60" style="rounded=0;html=1;entryX=0.452;entryY=0.1;entryPerimeter=0;dashed=1;labelBackgroundColor=none;startFill=0;endArrow=open;endFill=0;endSize=10;fontFamily=Verdana;fontSize=10;" parent="1" source="6e0c8c40b5770093-11" target="6e0c8c40b5770093-33" edge="1">
          <mxGeometry relative="1" as="geometry" />
        </mxCell>
        <mxCell id="6e0c8c40b5770093-61" style="edgeStyle=none;rounded=0;html=1;entryX=0.69;entryY=0.102;entryPerimeter=0;dashed=1;labelBackgroundColor=none;startFill=0;endArrow=open;endFill=0;endSize=10;fontFamily=Verdana;fontSize=10;" parent="1" source="6e0c8c40b5770093-20" target="6e0c8c40b5770093-33" edge="1">
          <mxGeometry relative="1" as="geometry" />
        </mxCell>
        <mxCell id="6e0c8c40b5770093-62" style="edgeStyle=none;rounded=0;html=1;dashed=1;labelBackgroundColor=none;startFill=0;endArrow=open;endFill=0;endSize=10;fontFamily=Verdana;fontSize=10;exitX=1.002;exitY=0.668;exitPerimeter=0;" parent="1" source="6e0c8c40b5770093-20" target="6e0c8c40b5770093-25" edge="1">
          <mxGeometry relative="1" as="geometry" />
        </mxCell>
        <mxCell id="6e0c8c40b5770093-63" style="edgeStyle=orthogonalEdgeStyle;rounded=0;html=1;dashed=1;labelBackgroundColor=none;startFill=0;endArrow=open;endFill=0;endSize=10;fontFamily=Verdana;fontSize=10;" parent="1" source="6e0c8c40b5770093-11" target="6e0c8c40b5770093-25" edge="1">
          <mxGeometry relative="1" as="geometry">
            <Array as="points">
              <mxPoint x="665.5" y="359.5" />
              <mxPoint x="665.5" y="464.5" />
            </Array>
          </mxGeometry>
        </mxCell>
        <mxCell id="6e0c8c40b5770093-73" value="&amp;lt;&amp;lt;model&amp;gt;&amp;gt;" style="text;html=1;align=left;verticalAlign=top;spacingTop=-4;fontSize=10;fontFamily=Verdana" parent="1" vertex="1">
          <mxGeometry x="327.5" y="114.5" width="130" height="20" as="geometry" />
        </mxCell>
      </root>
    </mxGraphModel>
  </diagram>
  <diagram id="uB3yKlh3zrVTlxncrJu1" name="第 2 页">
    <mxGraphModel dx="2893" dy="769" grid="1" gridSize="10" guides="1" tooltips="1" connect="1" arrows="1" fold="1" page="1" pageScale="1" pageWidth="827" pageHeight="1169" math="0" shadow="0">
      <root>
        <mxCell id="0" />
        <mxCell id="1" parent="0" />
        <mxCell id="2WO6aD5SNy231JVg03g9-1" value="" style="whiteSpace=wrap;html=1;aspect=fixed;" vertex="1" parent="1">
          <mxGeometry x="165" y="82" width="760" height="760" as="geometry" />
        </mxCell>
        <mxCell id="2WO6aD5SNy231JVg03g9-3" value="" style="rounded=1;whiteSpace=wrap;html=1;" vertex="1" parent="1">
          <mxGeometry x="195" y="150" width="180" height="550" as="geometry" />
        </mxCell>
        <mxCell id="2WO6aD5SNy231JVg03g9-4" value="" style="rounded=1;whiteSpace=wrap;html=1;" vertex="1" parent="1">
          <mxGeometry x="672" y="150" width="180" height="550" as="geometry" />
        </mxCell>
        <mxCell id="2WO6aD5SNy231JVg03g9-5" value="Browser" style="text;html=1;strokeColor=none;fillColor=none;align=center;verticalAlign=middle;whiteSpace=wrap;rounded=0;" vertex="1" parent="1">
          <mxGeometry x="195" y="90" width="60" height="30" as="geometry" />
        </mxCell>
        <mxCell id="2WO6aD5SNy231JVg03g9-6" value="Blockchain Node" style="rounded=1;whiteSpace=wrap;html=1;" vertex="1" parent="1">
          <mxGeometry x="958" y="168" width="170" height="70" as="geometry" />
        </mxCell>
        <mxCell id="2WO6aD5SNy231JVg03g9-15" value="&lt;span style=&quot;color: rgb(0, 0, 0); font-family: Helvetica; font-size: 12px; font-style: normal; font-variant-ligatures: normal; font-variant-caps: normal; font-weight: 400; letter-spacing: normal; orphans: 2; text-align: center; text-indent: 0px; text-transform: none; widows: 2; word-spacing: 0px; -webkit-text-stroke-width: 0px; background-color: rgb(248, 249, 250); text-decoration-thickness: initial; text-decoration-style: initial; text-decoration-color: initial; float: none; display: inline !important;&quot;&gt;Demo App&lt;br&gt;with Ethers.js&lt;br&gt;&lt;/span&gt;" style="text;html=1;strokeColor=none;fillColor=none;align=center;verticalAlign=middle;whiteSpace=wrap;rounded=0;" vertex="1" parent="1">
          <mxGeometry x="245" y="173" width="80" height="30" as="geometry" />
        </mxCell>
        <mxCell id="wfkHhlJccwyZcgHeUHSA-2" value="" style="group" vertex="1" connectable="0" parent="1">
          <mxGeometry x="943" y="278" width="200" height="125" as="geometry" />
        </mxCell>
        <mxCell id="2WO6aD5SNy231JVg03g9-12" value="" style="endArrow=none;html=1;rounded=0;" edge="1" parent="wfkHhlJccwyZcgHeUHSA-2" target="2WO6aD5SNy231JVg03g9-11">
          <mxGeometry width="50" height="50" relative="1" as="geometry">
            <mxPoint x="60" y="65" as="sourcePoint" />
            <mxPoint x="110" y="15" as="targetPoint" />
          </mxGeometry>
        </mxCell>
        <mxCell id="wfkHhlJccwyZcgHeUHSA-1" value="" style="group" vertex="1" connectable="0" parent="wfkHhlJccwyZcgHeUHSA-2">
          <mxGeometry width="200" height="125" as="geometry" />
        </mxCell>
        <mxCell id="2WO6aD5SNy231JVg03g9-7" value="" style="ellipse;whiteSpace=wrap;html=1;" vertex="1" parent="wfkHhlJccwyZcgHeUHSA-1">
          <mxGeometry width="200" height="125" as="geometry" />
        </mxCell>
        <mxCell id="2WO6aD5SNy231JVg03g9-8" value="" style="whiteSpace=wrap;html=1;aspect=fixed;" vertex="1" parent="wfkHhlJccwyZcgHeUHSA-1">
          <mxGeometry x="30" y="50" width="30" height="30" as="geometry" />
        </mxCell>
        <mxCell id="2WO6aD5SNy231JVg03g9-11" value="" style="whiteSpace=wrap;html=1;aspect=fixed;" vertex="1" parent="wfkHhlJccwyZcgHeUHSA-1">
          <mxGeometry x="150" y="50" width="30" height="30" as="geometry" />
        </mxCell>
        <mxCell id="2WO6aD5SNy231JVg03g9-9" value="" style="whiteSpace=wrap;html=1;aspect=fixed;fontStyle=1" vertex="1" parent="wfkHhlJccwyZcgHeUHSA-1">
          <mxGeometry x="70" y="50" width="30" height="30" as="geometry" />
        </mxCell>
        <mxCell id="2WO6aD5SNy231JVg03g9-10" value="" style="whiteSpace=wrap;html=1;aspect=fixed;" vertex="1" parent="wfkHhlJccwyZcgHeUHSA-1">
          <mxGeometry x="110" y="50" width="30" height="30" as="geometry" />
        </mxCell>
        <mxCell id="2WO6aD5SNy231JVg03g9-13" value="Blockchain" style="text;html=1;strokeColor=none;fillColor=none;align=center;verticalAlign=middle;whiteSpace=wrap;rounded=0;" vertex="1" parent="wfkHhlJccwyZcgHeUHSA-1">
          <mxGeometry x="70" y="10" width="60" height="30" as="geometry" />
        </mxCell>
        <mxCell id="wfkHhlJccwyZcgHeUHSA-3" value="&lt;meta charset=&quot;utf-8&quot;&gt;&lt;span style=&quot;color: rgb(0, 0, 0); font-family: Helvetica; font-size: 12px; font-style: normal; font-variant-ligatures: normal; font-variant-caps: normal; font-weight: 400; letter-spacing: normal; orphans: 2; text-align: center; text-indent: 0px; text-transform: none; widows: 2; word-spacing: 0px; -webkit-text-stroke-width: 0px; background-color: rgb(248, 249, 250); text-decoration-thickness: initial; text-decoration-style: initial; text-decoration-color: initial; float: none; display: inline !important;&quot;&gt;Wallet(Metamask)&lt;/span&gt;" style="text;html=1;strokeColor=none;fillColor=none;align=center;verticalAlign=middle;whiteSpace=wrap;rounded=0;" vertex="1" parent="1">
          <mxGeometry x="712" y="168" width="100" height="40" as="geometry" />
        </mxCell>
        <mxCell id="wfkHhlJccwyZcgHeUHSA-10" value="" style="group;fontStyle=1" vertex="1" connectable="0" parent="1">
          <mxGeometry x="210" y="220" width="150" height="60" as="geometry" />
        </mxCell>
        <mxCell id="wfkHhlJccwyZcgHeUHSA-9" value="" style="rounded=1;whiteSpace=wrap;html=1;" vertex="1" parent="wfkHhlJccwyZcgHeUHSA-10">
          <mxGeometry width="150" height="60" as="geometry" />
        </mxCell>
        <mxCell id="wfkHhlJccwyZcgHeUHSA-4" value="アカウント情報のリクエスト" style="text;html=1;strokeColor=none;fillColor=none;align=left;verticalAlign=middle;whiteSpace=wrap;rounded=0;container=0;" vertex="1" parent="wfkHhlJccwyZcgHeUHSA-10">
          <mxGeometry x="10" y="20" width="130" height="30" as="geometry" />
        </mxCell>
        <mxCell id="wfkHhlJccwyZcgHeUHSA-11" value="" style="group" vertex="1" connectable="0" parent="1">
          <mxGeometry x="687" y="220" width="150" height="60" as="geometry" />
        </mxCell>
        <mxCell id="wfkHhlJccwyZcgHeUHSA-12" value="" style="rounded=1;whiteSpace=wrap;html=1;" vertex="1" parent="wfkHhlJccwyZcgHeUHSA-11">
          <mxGeometry width="150" height="60" as="geometry" />
        </mxCell>
        <mxCell id="wfkHhlJccwyZcgHeUHSA-13" value="ユーザにアカウント選択、接続承認を発行" style="text;html=1;strokeColor=none;fillColor=none;align=left;verticalAlign=middle;whiteSpace=wrap;rounded=0;" vertex="1" parent="wfkHhlJccwyZcgHeUHSA-11">
          <mxGeometry x="10" y="20" width="130" height="30" as="geometry" />
        </mxCell>
        <mxCell id="wfkHhlJccwyZcgHeUHSA-17" value="Web3Provider.send(eth_requestAccounts)" style="text;html=1;strokeColor=none;fillColor=none;align=center;verticalAlign=middle;whiteSpace=wrap;rounded=0;" vertex="1" parent="1">
          <mxGeometry x="495" y="220" width="60" height="34" as="geometry" />
        </mxCell>
        <mxCell id="wfkHhlJccwyZcgHeUHSA-19" value="accounts" style="text;html=1;strokeColor=none;fillColor=none;align=center;verticalAlign=middle;whiteSpace=wrap;rounded=0;" vertex="1" parent="1">
          <mxGeometry x="489" y="251" width="60" height="30" as="geometry" />
        </mxCell>
        <mxCell id="wfkHhlJccwyZcgHeUHSA-20" value="" style="group;fontStyle=1" vertex="1" connectable="0" parent="1">
          <mxGeometry x="210" y="310.5" width="150" height="39.5" as="geometry" />
        </mxCell>
        <mxCell id="wfkHhlJccwyZcgHeUHSA-21" value="" style="rounded=1;whiteSpace=wrap;html=1;" vertex="1" parent="wfkHhlJccwyZcgHeUHSA-20">
          <mxGeometry width="150" height="39.5" as="geometry" />
        </mxCell>
        <mxCell id="wfkHhlJccwyZcgHeUHSA-22" value="Crontactの取得" style="text;html=1;strokeColor=none;fillColor=none;align=left;verticalAlign=middle;whiteSpace=wrap;rounded=0;container=0;" vertex="1" parent="wfkHhlJccwyZcgHeUHSA-20">
          <mxGeometry x="10" y="11.191666666666666" width="130" height="19.75" as="geometry" />
        </mxCell>
        <mxCell id="wfkHhlJccwyZcgHeUHSA-23" value="" style="group" vertex="1" connectable="0" parent="1">
          <mxGeometry x="691" y="304" width="150" height="60" as="geometry" />
        </mxCell>
        <mxCell id="wfkHhlJccwyZcgHeUHSA-24" value="" style="rounded=1;whiteSpace=wrap;html=1;" vertex="1" parent="wfkHhlJccwyZcgHeUHSA-23">
          <mxGeometry width="150" height="60" as="geometry" />
        </mxCell>
        <mxCell id="wfkHhlJccwyZcgHeUHSA-25" value="ユーザにアカウント選択、接続承認を発行" style="text;html=1;strokeColor=none;fillColor=none;align=left;verticalAlign=middle;whiteSpace=wrap;rounded=0;" vertex="1" parent="wfkHhlJccwyZcgHeUHSA-23">
          <mxGeometry x="10" y="20" width="130" height="30" as="geometry" />
        </mxCell>
        <mxCell id="wfkHhlJccwyZcgHeUHSA-27" value="Contract(addressContract, abi, provider)" style="text;html=1;strokeColor=none;fillColor=none;align=center;verticalAlign=middle;whiteSpace=wrap;rounded=0;" vertex="1" parent="1">
          <mxGeometry x="409" y="304" width="220" height="30" as="geometry" />
        </mxCell>
        <mxCell id="wfkHhlJccwyZcgHeUHSA-29" value="contract" style="text;html=1;strokeColor=none;fillColor=none;align=center;verticalAlign=middle;whiteSpace=wrap;rounded=0;" vertex="1" parent="1">
          <mxGeometry x="489" y="334" width="60" height="30" as="geometry" />
        </mxCell>
        <mxCell id="wfkHhlJccwyZcgHeUHSA-36" value="" style="endArrow=classic;startArrow=classic;html=1;rounded=1;" edge="1" parent="1">
          <mxGeometry width="50" height="50" relative="1" as="geometry">
            <mxPoint x="360" y="250" as="sourcePoint" />
            <mxPoint x="685" y="250" as="targetPoint" />
          </mxGeometry>
        </mxCell>
        <mxCell id="wfkHhlJccwyZcgHeUHSA-42" value="" style="endArrow=classic;startArrow=classic;html=1;rounded=1;" edge="1" parent="1">
          <mxGeometry width="50" height="50" relative="1" as="geometry">
            <mxPoint x="362.5" y="333" as="sourcePoint" />
            <mxPoint x="687.5" y="333" as="targetPoint" />
          </mxGeometry>
        </mxCell>
        <mxCell id="wfkHhlJccwyZcgHeUHSA-43" value="" style="group;fontStyle=1" vertex="1" connectable="0" parent="1">
          <mxGeometry x="210" y="385.5" width="150" height="39.5" as="geometry" />
        </mxCell>
        <mxCell id="wfkHhlJccwyZcgHeUHSA-44" value="" style="rounded=1;whiteSpace=wrap;html=1;" vertex="1" parent="wfkHhlJccwyZcgHeUHSA-43">
          <mxGeometry width="150" height="39.5" as="geometry" />
        </mxCell>
        <mxCell id="wfkHhlJccwyZcgHeUHSA-45" value="Crontact基本情報の取得" style="text;html=1;strokeColor=none;fillColor=none;align=left;verticalAlign=middle;whiteSpace=wrap;rounded=0;container=0;" vertex="1" parent="wfkHhlJccwyZcgHeUHSA-43">
          <mxGeometry x="10" y="11.191666666666666" width="130" height="19.75" as="geometry" />
        </mxCell>
        <mxCell id="wfkHhlJccwyZcgHeUHSA-46" value="" style="group" vertex="1" connectable="0" parent="1">
          <mxGeometry x="691" y="379" width="150" height="60" as="geometry" />
        </mxCell>
        <mxCell id="wfkHhlJccwyZcgHeUHSA-47" value="" style="rounded=1;whiteSpace=wrap;html=1;" vertex="1" parent="wfkHhlJccwyZcgHeUHSA-46">
          <mxGeometry width="150" height="60" as="geometry" />
        </mxCell>
        <mxCell id="wfkHhlJccwyZcgHeUHSA-48" value="Crontact基本情報を取得" style="text;html=1;strokeColor=none;fillColor=none;align=left;verticalAlign=middle;whiteSpace=wrap;rounded=0;" vertex="1" parent="wfkHhlJccwyZcgHeUHSA-46">
          <mxGeometry x="10" y="20" width="130" height="30" as="geometry" />
        </mxCell>
        <mxCell id="wfkHhlJccwyZcgHeUHSA-49" value="Contract.symbol、totalSupplyなど" style="text;html=1;strokeColor=none;fillColor=none;align=center;verticalAlign=middle;whiteSpace=wrap;rounded=0;" vertex="1" parent="1">
          <mxGeometry x="409" y="379" width="220" height="30" as="geometry" />
        </mxCell>
        <mxCell id="wfkHhlJccwyZcgHeUHSA-50" value="symbol、totalSupply" style="text;html=1;strokeColor=none;fillColor=none;align=center;verticalAlign=middle;whiteSpace=wrap;rounded=0;flipV=0;" vertex="1" parent="1">
          <mxGeometry x="458" y="408" width="130" height="30" as="geometry" />
        </mxCell>
        <mxCell id="wfkHhlJccwyZcgHeUHSA-51" value="" style="endArrow=classic;startArrow=classic;html=1;rounded=1;" edge="1" parent="1">
          <mxGeometry width="50" height="50" relative="1" as="geometry">
            <mxPoint x="362.5" y="408" as="sourcePoint" />
            <mxPoint x="687.5" y="408" as="targetPoint" />
          </mxGeometry>
        </mxCell>
        <mxCell id="wfkHhlJccwyZcgHeUHSA-53" value="" style="group;fontStyle=1" vertex="1" connectable="0" parent="1">
          <mxGeometry x="209" y="462.5" width="150" height="39.5" as="geometry" />
        </mxCell>
        <mxCell id="wfkHhlJccwyZcgHeUHSA-54" value="" style="rounded=1;whiteSpace=wrap;html=1;" vertex="1" parent="wfkHhlJccwyZcgHeUHSA-53">
          <mxGeometry width="150" height="39.5" as="geometry" />
        </mxCell>
        <mxCell id="wfkHhlJccwyZcgHeUHSA-55" value="TokenIDの取得" style="text;html=1;strokeColor=none;fillColor=none;align=left;verticalAlign=middle;whiteSpace=wrap;rounded=0;container=0;" vertex="1" parent="wfkHhlJccwyZcgHeUHSA-53">
          <mxGeometry x="10" y="11.191666666666666" width="130" height="19.75" as="geometry" />
        </mxCell>
        <mxCell id="wfkHhlJccwyZcgHeUHSA-56" value="" style="group" vertex="1" connectable="0" parent="1">
          <mxGeometry x="690" y="460" width="150" height="50" as="geometry" />
        </mxCell>
        <mxCell id="wfkHhlJccwyZcgHeUHSA-57" value="" style="rounded=1;whiteSpace=wrap;html=1;" vertex="1" parent="wfkHhlJccwyZcgHeUHSA-56">
          <mxGeometry y="6.666666666666667" width="150" height="41.666666666666664" as="geometry" />
        </mxCell>
        <mxCell id="wfkHhlJccwyZcgHeUHSA-58" value="TokenIDを取得" style="text;html=1;strokeColor=none;fillColor=none;align=left;verticalAlign=middle;whiteSpace=wrap;rounded=0;" vertex="1" parent="wfkHhlJccwyZcgHeUHSA-56">
          <mxGeometry x="10" y="16.666666666666668" width="130" height="25" as="geometry" />
        </mxCell>
        <mxCell id="wfkHhlJccwyZcgHeUHSA-59" value="Contract.tokenOfOwnerByIndex(Owner Account）" style="text;html=1;strokeColor=none;fillColor=none;align=center;verticalAlign=middle;whiteSpace=wrap;rounded=0;" vertex="1" parent="1">
          <mxGeometry x="385" y="456" width="280" height="30" as="geometry" />
        </mxCell>
        <mxCell id="wfkHhlJccwyZcgHeUHSA-60" value="TokenID" style="text;html=1;strokeColor=none;fillColor=none;align=center;verticalAlign=middle;whiteSpace=wrap;rounded=0;flipV=0;" vertex="1" parent="1">
          <mxGeometry x="457" y="485" width="130" height="30" as="geometry" />
        </mxCell>
        <mxCell id="wfkHhlJccwyZcgHeUHSA-61" value="" style="endArrow=classic;startArrow=classic;html=1;rounded=1;" edge="1" parent="1">
          <mxGeometry width="50" height="50" relative="1" as="geometry">
            <mxPoint x="361.5" y="485" as="sourcePoint" />
            <mxPoint x="686.5" y="485" as="targetPoint" />
          </mxGeometry>
        </mxCell>
        <mxCell id="wfkHhlJccwyZcgHeUHSA-62" value="" style="group;fontStyle=1" vertex="1" connectable="0" parent="1">
          <mxGeometry x="209" y="517.5" width="150" height="39.5" as="geometry" />
        </mxCell>
        <mxCell id="wfkHhlJccwyZcgHeUHSA-63" value="" style="rounded=1;whiteSpace=wrap;html=1;" vertex="1" parent="wfkHhlJccwyZcgHeUHSA-62">
          <mxGeometry width="150" height="39.5" as="geometry" />
        </mxCell>
        <mxCell id="wfkHhlJccwyZcgHeUHSA-64" value="TokenのメタデータのURIの取得" style="text;html=1;strokeColor=none;fillColor=none;align=left;verticalAlign=middle;whiteSpace=wrap;rounded=0;container=0;" vertex="1" parent="wfkHhlJccwyZcgHeUHSA-62">
          <mxGeometry x="10" y="11.191666666666666" width="130" height="19.75" as="geometry" />
        </mxCell>
        <mxCell id="wfkHhlJccwyZcgHeUHSA-65" value="" style="group" vertex="1" connectable="0" parent="1">
          <mxGeometry x="690" y="515" width="150" height="50" as="geometry" />
        </mxCell>
        <mxCell id="wfkHhlJccwyZcgHeUHSA-66" value="" style="rounded=1;whiteSpace=wrap;html=1;" vertex="1" parent="wfkHhlJccwyZcgHeUHSA-65">
          <mxGeometry y="6.666666666666667" width="150" height="41.666666666666664" as="geometry" />
        </mxCell>
        <mxCell id="wfkHhlJccwyZcgHeUHSA-67" value="TokenURI を取得" style="text;html=1;strokeColor=none;fillColor=none;align=left;verticalAlign=middle;whiteSpace=wrap;rounded=0;" vertex="1" parent="wfkHhlJccwyZcgHeUHSA-65">
          <mxGeometry x="10" y="16.666666666666668" width="130" height="25" as="geometry" />
        </mxCell>
        <mxCell id="wfkHhlJccwyZcgHeUHSA-68" value="Contract.tokenURI(TokenID）" style="text;html=1;strokeColor=none;fillColor=none;align=center;verticalAlign=middle;whiteSpace=wrap;rounded=0;" vertex="1" parent="1">
          <mxGeometry x="385" y="514" width="280" height="30" as="geometry" />
        </mxCell>
        <mxCell id="wfkHhlJccwyZcgHeUHSA-69" value="TokenURI&amp;nbsp;" style="text;html=1;strokeColor=none;fillColor=none;align=center;verticalAlign=middle;whiteSpace=wrap;rounded=0;flipV=0;" vertex="1" parent="1">
          <mxGeometry x="457" y="540" width="130" height="30" as="geometry" />
        </mxCell>
        <mxCell id="wfkHhlJccwyZcgHeUHSA-70" value="" style="endArrow=classic;startArrow=classic;html=1;rounded=1;" edge="1" parent="1">
          <mxGeometry width="50" height="50" relative="1" as="geometry">
            <mxPoint x="361.5" y="543" as="sourcePoint" />
            <mxPoint x="686.5" y="543" as="targetPoint" />
          </mxGeometry>
        </mxCell>
        <mxCell id="wfkHhlJccwyZcgHeUHSA-71" value="" style="group;fontStyle=1" vertex="1" connectable="0" parent="1">
          <mxGeometry x="210" y="570" width="150" height="39.5" as="geometry" />
        </mxCell>
        <mxCell id="wfkHhlJccwyZcgHeUHSA-72" value="" style="rounded=1;whiteSpace=wrap;html=1;" vertex="1" parent="wfkHhlJccwyZcgHeUHSA-71">
          <mxGeometry width="150" height="39.5" as="geometry" />
        </mxCell>
        <mxCell id="wfkHhlJccwyZcgHeUHSA-73" value="Token のメタデータを取得" style="text;html=1;strokeColor=none;fillColor=none;align=left;verticalAlign=middle;whiteSpace=wrap;rounded=0;container=0;" vertex="1" parent="wfkHhlJccwyZcgHeUHSA-71">
          <mxGeometry x="10" y="11.191666666666666" width="130" height="19.75" as="geometry" />
        </mxCell>
        <mxCell id="wfkHhlJccwyZcgHeUHSA-79" value="" style="group" vertex="1" connectable="0" parent="1">
          <mxGeometry x="-230" y="485" width="210" height="262" as="geometry" />
        </mxCell>
        <mxCell id="wfkHhlJccwyZcgHeUHSA-78" value="" style="shape=cylinder3;whiteSpace=wrap;html=1;boundedLbl=1;backgroundOutline=1;size=15;" vertex="1" parent="wfkHhlJccwyZcgHeUHSA-79">
          <mxGeometry width="210" height="262" as="geometry" />
        </mxCell>
        <mxCell id="wfkHhlJccwyZcgHeUHSA-74" value="" style="shape=image;verticalLabelPosition=bottom;labelBackgroundColor=default;verticalAlign=top;aspect=fixed;imageAspect=0;image=data:image/png,iVBORw0KGgoAAAANSUhEUgAAAOEAAADhCAMAAAAJbSJIAAAAllBMVEX///9EkpQzbW8oaGogZGa+zM2OqKkyamw6e307f4E1b3E7jpA3dng+kJKVvL54rK620dItiYvN3+CtwMEUYGIgbW8+hYfr7/BBi40hZWe+1dawzc5ojY5FlZe3yMjc5OR9nZ5chojm7Oycs7REd3nF0tPz9vZDdniHpKVcnqCkxsd+sLGQurtqpaeWr7BQf4Bki40AUFPQ/KlmAAAMz0lEQVR4nO2da3+iPBPG5WBRKGtR1opKtdraxUN3n+//5R4QgZlwSkLCob/7erEvXIX8S4ZcMwlkNGpXN3PV8hlb1lZXtY9D162QpzdPU0O53103RJJ2H7oay9Peum6MBL3uXTWT+3fXdYNE69vVVCjD3Z+6bpNIvameSkpzj103S5h2f90c3z0czc+umyZGe6KDwnB8/wEjx0Iv5bt31T8DD8dPU6/guzN6i64b2UCHrWvUAIbSP+ZdN5RXT1kAGjlS49lMP3O3r123lUdvWsY3UZamgflWvjIF4Tg8I5dZtJhG8ZfP4ZWMpU6iTxRfmaTYQzNyr9t0BDTMZURzB1otp6GWK+XxieKvnlNGfUhGDlg0Y6pUyl+qWTgOxciNM4sWBqBfTRhqmiJq+hCMHLBohrmq54t6b9ZVPXXcNUCNTvt0BDTUJQ3fnXEFRo73Xofjgj4ACcYsHI0eGzlg0eIRgkkTEI79NHKH96yD0gUgcRnhyNHHvOpP2kEZApBkNLOu+q9neRXIkdgCkGBcAiP31DUUULMAxALh2Ju86vUfCEDODgouIwzHr16MHCBHUqdN+e6My17lVQsNWjRRAkau47wqlyMJEs6rujNyoIzNPUKUMkIj11VedeS1aJSM0Mh1kVfBHOmZIkfi0aTDvIo9R+IRyqtaNXJ8ORIXI8qrWjNyCw9W0SQLGbk/rfAhiyYpALGmrRq5pjkSj7CRkxuOJ2jRpAYgwbgEedVWYjgutBYDkBA0crLyqt2XHItGJ/kF8sIydruMcgvkcKWBBItGySgvr3rT2MrY8gTDUZyRa8ei0QkbOTF5VXsWjZJRdF4lOUfiEcirmq90GGvycyQegbzKbWLkdu/9CUAsGI78BfLTvhuLRidUIOebrzrq3Vk0KvlwpQN7mUNkGVue+OerUI7Uuw6aiXe+6vRHdBlbnsJwTPsadV4FihThz1ZdM9QqRaTMq0CONAxC3wTN1erzqldisevACEMjVxeNY33ghFpdRyUJB3Sn4SXsmV3DguaNm7BnlhtrSvLxEfbWtRFrVpsQ9iP1xYJ2RgBhD83ppJCPnRDcqDouQSGBtCJsI7qbMl9D9PPeVDFgAJpNx0MTHKEXeQYOQIKPLw7hQXoQjtMqPt47jYnDsUOB+dJCPhZCwwSdHXXV7kYOWCol/+7JvZWa0Jj4pTesjowctmhk7CRXl5bwPjL4aNDBh+xg5CgLwPT+98xAOEkeAim9b7Vd/yZGCMSXfGXKQUgcubNwrAhA8JfmI1SqekdbKxXKowX5LG7CqghvebVJ9eDMTUjbSeSoPABzYdKAED+A1aaRY7rVNSJUlIqRQ2I4Mg1XTQkr/pyS8ipWy9GUsCocZeRVpTlS6TjVnDBUmfEVHo48XkMIYWvhCE5jaJqn624oXfe8itM0ILSdVJad/HG1+Jxupt+Pr1iWbRe1wHIoFH0RrinV3a/98e1zF2k+XhwvgRU2QjChfZtnuthxgGiL02uBDmE7Xs6XwMk3w5rTKIAd1HO34/zSp93mVgjZgHAGvvDLio/l1UzyzH/5Dm6FU3PqWIGV8Znl87rrmWPJJAydIsWs8u6CGOkIl9lSmepVXaezZckjDBkdmgWQp5nDSpgEoPdevzLvbEskVKwXqgbPs8tIR/iYf9b3NF+2ekA4elVsJsJ4hlanWpW/6QXh6JQMHVSEpzuhtqU6dNCHXhrq4DAQPmbZqQ48d5TWCLPxsGhp0tqhJzy4oVPS8+tGD7twrNzho1/s1ghP/8uMja5uj+Qqs5tNEh7WUG+pxkfNVI0vgi4cWiOrFP0TXNfJPfZEXEKp1/A3SsM99wMviIj7KSTcRN7uoWnoOhPdl/IQD8Zc4Nhuh6D++b4y6EwO+TIJHbIi5+Jbxf0iIsKkdUUZmYs6Y5DzLqHBDTajUe5jqYS5CQXvAx71JfqRlScsLHIZ6Ke5K/W4lM4s50zlEipkXuXtwf+HIeOvfoMPFvEilsJUTIO/HJHBlrWq5Wuo5JJWF95vfPvZ0CGhbq5QdQtU0TzoR8kRoUrSCYnCgwZtyTa8gyBCTzXKSiIoa9kUdtLOCJOzPBDBF57yhGoxnzFx1gWn6w8hqMDDW+LRKyckayEWJCy+0XRJCO7/MBAX5YS5MjYi7FkcJozxLYSKsKCKZp1HpYfuCaEST6ZAwqpemgbgo65sXWGDzvSIrRJGQ7kLkvTvyjuNisrYdoBadKVGbJUwCkcPfGFfRwgLyg5OIdZKvujUB0LFvoEvvBtVhMQKllzqOb9aNJBtE6IvREBlhLlqOdFNqSFbv4bg/w9uOWHBPBIa81PtwjSxErJlQge+OneRu4ZumhJaUA877Ze07nCugmyX0EGDWhSGiHD3Nk6Esv1rjGhdShu4u5KF4E4ILQfdLO6dFBGWKTHa+A9E6MUvZmyH0I7LDPh+v9dYCRXnV9XXXuwiRpmEdrKGyg9m1xfy+ardo8rLQqhYs8ovFvmAzuqloy+Vg1Cx7MI7aqJ5fn6tM8K9x0UY9tSg6lXmJ59E7IrwmDwrxkyo2I6/KX/6NYfYEeH1t8pNeK+p3V7KIF+lzh9SEr4GVjrlSUP4kr9HhpDBufjh0O7nnk5Xx86ensMj/kNrLHIqIoVUrkUxif1e64Tzx1T7ysgTLlwvkj6xrCLXVqDQeM9yN1d8ydskfJ1vbk4y++s/Vk8WOO9npiU4oZkgrA6enJE59+QEt9nlco10udx8C6818eNKcZ7QZOGLz6rgiLzBiy7VtdmR7t3MLlgtFCPmCNkBowEETd2hYmPb+SFCnORzfOOZA1DBEzyhs+kJ4b3ej+ctDN4HjFEsHuCZOyWMzo8I+VeIoxrHqU+EPppdYyjWk0LrAX4m4ankzD+HEBznZ/ZS5UcQlrs3xYZVqt1QCf3AKWVEZcp1b8ZDNkLrOlqT62/T/4OTBaNra65NLOH9Ms0LlzpbPsqH0f8NiPBhzE7ngIC0HVyBm7eVWwgmBPeS0/riO8kKMce5EGkwTpiHQ2gRme5uvjmfz5t17rVzB3ze4RA65fU1rBZX0AolRFOrVSLX2gyG0NrQAW7aXF8qlJCyk+YXaQyGUPErJyweuuTPORxCxQnqGOdKwQEGRKjYll1S5o75gsITiiaEf2YJ2VNUyy987+ruXGZZmzytPssUJNhB9tmtItnJDvK8zfSX4gd2aGKCXy/zQ3LnOR3m55lTvlShyTOkdqaiz2gAQ0Itkhr/S/MLJV6af2fy7w9oVpX9hT0lyy3//uqRZLGl+OP/R/gfYXNJJ2R6P40p4SUJsgl9pncMyXijl2zCxwp6+jdhmaJfPiuXMH18iuF9bYbo90DIJFylT6ewvJHOWNYfmUEyCVfgUR2Wd+6JfUuyTELwfBHbWwVNkf1UHuHjyDyE3PO0Fe2QQLg0uAmFNkQaIX6hNyOhyFd5SSNcGQ0IRUaiLEJ/ojYhNAS2RBah2oxQ3IAhrZcazQjFBaIswhUj4Sex+8PgCL3a3dj+6oMm9LT6ivlC1wZLSLu9JdxIh20FaJUkEcJXD9LviXj4l26GVPRoGWdTZBCi7ZA+WHYnk7ChlRRCsKUV81bBC9G7AkoghNuScewSCHZ2FLKxnGhCtCnpP749gsXuzimWEAagp/Lv1jk2xW3wKJYQ7inXbMdVcZt0CiRE23Sy7wtISNhGq8II0VarfHs7EtplRq5JOAoiRNvlqqI2Wn8Tsd+qIEK45fG3IL5I3813RBRBiHaRbxyAWM03Hm9OKHnr8cabxzcllL99PMqrOOamGhKinWNFBiDWU4NwbEQocd94QmiTWbau2oAQBeCXqBGiTJ+84diAsEmOxCPOcOQlRBbtSewIUSawYTeDkeMjxNtv8+VIPOLZdJ2HUMwW6nwaAyNHt70FDyG0aM1yJB4d4cghg1CmRaNTGI5ZV60PR0ZClCNJsGh0gnlV7cjBRIgsWoMiRXO9oXAUR9iORaPTN2040hMii7aXadHoRJtX0RLKzpF4RGfk6AhhAGpaGxaNTgut3sjREcIApJtHaktwvqq4q1IQohGQs4wtT4c6I1dL2G6OxCM0X5U3crWEsIzdnwDEOlblVdWEqEhBtUFJN6rKq6oIxZex5QnOV+GRo5ywyxyJR2O1OK8qJ+w2R+LRd+F8VQkh3D+gmxyJR4VGrpAQBqD+0e8AxJp/5IwcWsmrxh+1UMaWp4UHRw4f7ZqgPrbF7lOOxCNUIEdbbuY+klvGlqcwHFObSfJFnw0zALFAXlWqdsrY8gTCsZivZzkSh4CRK1CbZWx5AgVyQt4ALBqdgJFDHXQYFo1Ox1xX7aiMLU+gQB4HYE+qaCK1y4xc2GmHZtHolFTkhmnRqHR6ikyOu/0JI0SZDn91YWvR+qpZ2x77/xwYjSqGpd8dAAAAAElFTkSuQmCC;" vertex="1" parent="wfkHhlJccwyZcgHeUHSA-79">
          <mxGeometry x="60" y="37" width="100" height="100" as="geometry" />
        </mxCell>
        <mxCell id="wfkHhlJccwyZcgHeUHSA-75" value="" style="shape=image;verticalLabelPosition=bottom;labelBackgroundColor=default;verticalAlign=top;aspect=fixed;imageAspect=0;image=data:image/jpeg,/9j/4AAQSkZJRgABAQAAAQABAAD/2wCEAAoHCBUUEhUWFhUYGBgaHCEYGhoYHBkaHBgcGhwcGhoaHBocIS4lHCErJRgYJzgoKy8xNTU1GiQ7QDs0Py40NTEBDAwMEA8PEA8PEDEdGB0xNDExNDQxNDExMTExNDE/MTExMTExMTExMTExMTQxMTExMTExMTExMTExMTExMTExMf/AABEIAOEA4QMBIgACEQEDEQH/xAAcAAEAAgIDAQAAAAAAAAAAAAAABgcFCAEDBAL/xABHEAACAQIBCQQHBQQHCQEAAAABAgADEQQFBgcSITFBUWEiMnGBE0JygpGhsRQjUmKSorLBwiQzQ1SDk9EVFzVTZLPS4/AW/8QAFgEBAQEAAAAAAAAAAAAAAAAAAAEC/8QAFhEBAQEAAAAAAAAAAAAAAAAAABEB/9oADAMBAAIRAxEAPwC5oiICIiAiIgIiICIiAiJwTA5ieDEZWw9PY9ekh/M6r9TMc2eeTwSDjaFx+dYEgiR8Z6ZO/vtD9az34bLWGqEBMRRYnbZaiE/AGBkYnwrA7QbjpPuAiIgIiICIiAiIgIiICIiAiIgIiICIiAiJCs7NIOHwV6a2rVxs1FOxT+dtur4C5gTF3CgliABtJJsAOpMheXNJeCw91RjiHHCn3R41D2T5XlQ5wZ1YrGsfTVOxwprdaa+7fteLEmYWWCd5W0pY6rcUglBeBUB2/U4t+zInjst4mub1cRVfoztq/pB1flPBPZgMlYjEf1NGpU6ojMPiBb5wjwhANwE+pLsLo3yk/wDYqm313QedlJMyKaJsdxfDj36h/kgQCfLIDvAPjLBfRLjuD4c+LVB/JPFitGeUUvamjgfgddvgHsYEYwWU69Eg0q1RLbtR3UbN2wGx8xJTkrSbj6Ng7pXXlUUBv1pb5gyOZQyFiqF/S4eqgHFlbV5d4bPnMaDfdAvDIulPCVbLWDYdubdtP1qLjzAk6w2ISogZHV1O0MpDA+BGyarTI5Gy7iMG+vh6rJzXej9GQ7D47+RERWz8SvM09JlDEatPEBaFU7A1/unPCzHuE8m+JlhAyDmIiAiIgIiICIiAiIgIiICdVWoEUsxCqBckmwAG0kk7hOK1VUVmYhVUEkk2AA2kk8BKJz9z3bGuaVIlcMp2DcapHrv+XiF8zt3BlM9tJL1i1HBkpT3NV3M/PU/AvXeenGt4mYzbzaxGOqalFeyD23a4RB1PE9Bt+sqMOqkkAAkk2AAuSTuAA3mTrN7Rjiq9nrkYZDwYa1Qj2L2T3jfpLNzVzKw2BAZVD1rbarga3UKPUHQbeZMlMVUUyLmDgcNYikKjj16vbN+gPZHkJKFQAAAAAbgNgn3EgREQERED5IvI9ljMvBYq5qUFVz69PsP8V3+d5I4gUpnDoqr0rthXFZd+o1kqAdD3W/ZlfYii6OyOjI6mzKwKsp6g7RNrJgc481sNjktWQa4FlqLYOng3EdDcS0a2ybZl6QauDK0q2tVw+6296Y/KTvX8p8jwmNztzOxGAYlhr0SbJVUG23cHHqN8jwMjcI2lyfjqdemtSkwdGF1ZTcEfwPSeua5ZnZ21cn1bi70WP3lO+/8AMl9gcfPceBGwGTMoU8RSSrSYMji6kfQjgRuI4SK9sREBERAREQEREBESDaTs6PsmG9FTa1asCqkb6abmfodth18IEM0o54mu7YSi33SG1RlP9Y4Pd9hbeZ8JXcTNZp5uvj8StJLqo7VR/wAC8/aO4D/SVHtzJzQqZQq32rQU/ePz/Il97H4AbTwBvrJWTKWGpLSooERdwHPiSTtJPMznJeT6eHpJSpLqogsB9SeZJ2k8zPdIpERAREQEREBERAREQEREDz4rDJURkdVZGFmVhcEciJR2kDMdsExrUQWwzHxNEn1W4lDwbyPAm+Z016KurK4DKwKlSLgg7CCOIgaqyX6Ps72wNbUdicM5s4/5bHdUUfUcRt4Tqz+zUbAVxqXNCpc02PqneabHmOB4jwMisqNrKbhgCCCCLgjcQdoInZKv0R50a6fYqrdtAWpE+sg3p4rw6eEtCRSIiAiIgIiIHTiKyojOxAVQWYncABck+QmtWc+WmxuLqV2vZjq01PqIuxF+pPVjLa0vZZ9DgxQU2au2qfYWxb4nVXzMpCXB9U0ZmCqCzMQqqN7EmwA6kmbE5kZuLgcKtPYajduqw4ufVB/Cu4eF+MrbRDkH02KbEsvYobEvuaow/lXb4svKXdGhERIEREBE4mBzjzqw2BUGs/bIutNO07dQvAdTYQM/EpPKmlnEuSKFKnSXgWvUYj5KPgZHK+e+UXNzi6g4djVUfBRA2Pia3JnplBSD9rqm3MgjzBG2ZrJulLH0yNf0dZeIZdRj7y7vgYF7xIbmtpBwuNIQ3o1jsFOoRZzyR9zeGw9JMQYHMREBERAxWcOR0xmGehU3MNh4qw7rDqDNbcpYB6FZ6NQWdGKsOFxxHMEWI6ETaeVRplyDdaeMRdoIp1bfhPcc+B7PvDlLgq7J2NfD1qdambPTYOviN4PQi4PQmbMZFykuJw9OundqKGHQ7mU9QQR5TV+WxoXyzcVsKx3fe0/A2DqPPVPvGNFsRESBERATgzmddZwqsTuAJPkLwKE0qZT9PlN1B7NECkPG2s5+LW92Q0md+MxRq1KlU3vUdn2/nYt/GZDNTJ/2jHYakRcNUUt7K9tvkplRfGY2R/smAo0yLORrv7b9o/DYPKSKIkUiIgIiIEVz8zoGAw2soDVXOrSU7r7y56KPiSBxmv2KxL1aj1Kjs7udZmY3LH/6wA4AADdJhpcygXymyE9mkioouN7gVGPnrKPdkI1xzEqPqd1DCVHvqU3e2/URnt46oMkGjzICY7GBHN6aL6R1BsXAICrcbgSdvQTYTD0FpqFRVVRsCqAoA6ARVatV8K6d9HT20ZP3gJ1TajE4ZKilHVXU7CrAMCOoMo7SZmkuCqpUoi1GqSAm/UcC5VfykXI5WI3WgQcS5tFmd5xCnC12LVUXWpuxuXQb1Y7yy8zvB6GU1PfkLKRw2Ko1wbajhm9i9nFuPZLQjaGIiRSIiAngyzk9cRh6tFt1RSvgSNh8jY+U98QNUq9Fkd0cWZGKMPzKSp+YMy+ZuUzhsfhqt9muEf2Kh1G+F7+Uyek/AehynWsLLUC1R4sLN+0rHzkQYbJUbYiczFZt470+Dw9X8dNGO7eVF93W8ysikREBMHnniDTydi3Frii4F+ZUr/GZyRLSj/wjFf4f/epwNfJOtD2G1spF7G1Ok7X5FiqC/kW+Egss3QhTvXxbcFSmv6mYj9wyouOIiRSIiAiIgeSrk+izFmpU2Y7yyKSeG0kT5/2Xh/8AkUv0J/pOzGYpKNNqlRlRFF2ZjYAdTKnzl0rOWZMGgVBs9K41mbqqblHItfwEC2KGDpobpTRCdl1VVJ+AnzUx9FQS1WmoG8llAHjc7JrTlHLeJxBvWxFR+jOdXnsQWUbzuEx2oOQlg2b/AP02B/vmG/zqf/lIPpXyxhq2AVaWIo1HFVDq03R2A1XubKSQNsp6IgTrr9xvA/Sdk66/cbwP0lRthS7o8B9J2Trpd1fAfSdkypERAREQKh03YWz4Wrber0yeGwqyj5tKtly6baf9Ew78q2r+qm5/klNS4i/NFOI18l0gbdhqibOFnYi/WzD4yaSu9Czf0CqP+ob506UsSRSIiAkR0pf8JxP+H/3qcl0jekHD6+S8WtibUy4A5oQ4+aiBrnLR0H1AKmMXiVpN+k1Af3hKulhaF8SFx1VPx0SR7jrs694/CVF3RESKREQEROCYFIaWc42rYk4VCRToka/56lrm/MKCAOt+Qlfzux2J9LVq1Lk67vUud512L3P6p0yo9+Rcj1sXVFKgmu527TZVA3szcBtH8Ly0cmaIqQUHEYh3a20UwEUHoWBJ48vCNCWFX0GJqWGuagS/EKqKwHxdj8JaEioMui3J1hdKh6+lqbfgQJFtIuZWDwWDFWgjq5qKt2d3GqQxOxj0EuKV/plYf7OUX2mslhz7LwKPnXX7jeB+k7J11+43gfpNI2wpd1fAfSdk66XdXwH0nZMqREQERECttNjj7Hh14nEA+QpVAf3hKYls6b641cJT4lnf4BV/m+UqaXEXXoVX+g1jzxDD4U6f+ssWQTQ9h9XJgbbepVqOb9CKYt0sgk7kUiIgJ5coYcVKNSmdzqyHh3lI/jPVODA1QZCpKt3lOqfEbD9JI9H+P9BlLDMTYM3ozu3VAUG/qVnzn9k77PlLEpays/pF6ioNc/tFh5SPq5UhlNmBDKeRBuD8RKja+Jjcg5SXE4ajXXc6BvA27Q8jcTJSKREQE4M5iBq5lvBGhiq9Erq6lR1AG7VDHUI6FdUjoZ4pb+lTM5qp+2UFLOBaqii5ZRudRxIGwjiPCU+DKiZ6PM8Fye7rVBNCoQWKi5RwLa4XiCNhA27BLdoZ55PcXGNw46PUVD+lyD8prhEC/MraSMBQU6tX078FojWB9/ugefheU/nXnPWyhV1qnZRdiU1N1QcTf1mPE/SYOezDZMq1KNWsiE06Vtd+CliAB1PaBty2wPHOuv3G8D9J2T5YXFpRtZh3BRSNxUEeBF53TEZrYwVsDhqg2a1JCQNtjqgEX6EEeUy8ypERARE6q9VURmY2VQWJ5AC5MCjdL2PFTKOoDcUqaofaa7n5MsgpM9uWMecRia1dt9R2bwBPZHkLDyjJGAOIxFGgBf0jqp9lmAY+S3PlKjYXMjBmjk3Cod/o1Y8dr9s/Npn58UwAABuAsPLZPuRSIiAiIgVTppyRdKOKUd0+iqey21SfO496VLNn8u5MTFYarQfdUUrf8J3q3kQD5TWbHYVqNR6TjVemxRh1Bt8OPnLgtXQzly6VMGx2r97TvxUmzqPA6p9+WrNXMj5TfC16den30bWA4MNzKehBI85spkjKSYmhTrUzdHUMOY5qeRBuD4Ro98REgREQODIVnNo6wmLZqi3oVTtL0wNVjzZNxPUWJk2iBR2N0T41T2KlCoOZZkPmpUgfEzzrosyiSARQA5+kOz4JL5iWiqsi6I1BDYqvr8TTpAqp6Go3aI8Apk+rZCo/ZHwqoqUmQoFUWC3G+3E3233kzLxIKm/3Of8AWn/J/wDZOf8Ac4P76f8AJ/8AZLYiBH8zsgtgcP6A1vSqGZkOrqaobaV7xvt1j5yQREBERASA6Wcu/Z8H6FT28QdTYdoQbXbz2L70nFestNGdiFVQWZjsAAFyTNcM78vtjsW9Y3Cdympv2UUnVuDuJuSeptwgYSWJocyR6TFPiWHZorqqfzuLfJb/AKhK7AJIABJOwAbSSdwA5zY3MfIf2PBU6RHbP3lT22sSPIWX3ZdRI4iJFIiICIiAlS6X82dox1NeASsAOWxKn0U9AvIy2p0YrDpURkdQyMCrKdoIIsQRA1Wk50ZZ3fY6voKrfcVDvO6m5sA3RTuPkecw+eubL4DElNppPdqTn1l4qT+Jbi/iDxkelRteDOZT+jbPwIEwmKey92jUbcOVNzwH4W8jwlvgyK5iIgIiICIiAiIgIiICIiAicGVxpFz8XDq2Gw7A1yLO67RRB3gH8f7u88AQw+lfO7XJwVFuyD984PeI2imCOA3t1sOcq+Jk83siVMbiEoUxtbazcEQd52/+2kgSoleinNn7RiPtVRfuqJulxsepa6+IW4bx1eol4ieDI+S6eFoJRpCyILDmTvLHmSbk+MyEikREBERAREQEREDD5yZCpY3DtRqg2O1WFtZGG5l6j5i4mvecOQa2CrmjWG3ejju1Fv3l+VxwPz2cmFzkzfo46iaVVeqOO9Tbgyn6jcRsga0ywcx9IjYYLQxN3ojYr73pjr+JRy3jhfdI1nTmviMBU1ai6yE/d1FB1H6flbmp62uNswcqNp8FjKdamtSm6ujC6spBBHiJ6ZrLm/nFicDUL0HKg7WpttR/aTn1Fj1ls5uaUMNXsmIBw78ydamT0fevvAeMirBidNGsrqGVgynaGUgg+BE7YHMREBERARE+GcAEk2A3k7APOB9zqq1AilmIVQLkkgAAcSTukOzi0j4PDXVCcRUHq0yNUH8z7h5XPSVJnNndicebVW1aYNxSS4QW3FuLkcz5AQJpnvpL1g1DBHYdj1+Y5U//AC+HOVYTEyOQsiV8ZVFKgmsfWY7EQH1nbgPmeAMqOjJeTqmIqpRopru+4cAOLMeCjiZsFmbmtTyfQ1Adeo1jUqWtrNyA4KLmw895nzmdmnSyfS1Vs9Vv6yoRYtbco5KOA85JpFIiICIiAiIgIiICIiAiIgeTKGBp16bU6qK6MLFWFwf9PGVFnbowqUi1TB3q095pE9tPZJ746d7xl0Ti0DVF0KkqwKsNhDAgg8iDtB6GcTZDOHNLCY0ffU+3awqJ2XHvDf4NcSs8t6KMRTu2Gday/hayOPj2W+UtRCcmZYxGGa9Cs9PojHVPih7J8xJlk3SvjEsKqU6w52NNviuzl6vCQjKGTq2HbVrUnpnd21ZQfAnYfIzzQLiw2mCgR95hqym3qFHF/eK7JlE0p5PIBLVVPI02JHmtx85RMRBex0p5O/FVP+E/8ZjsTpeww7mHrt7Xo1HiLMx+UpqIgsXKOlrFMCKVGnS6sTUYeF7D5SG5WzhxWKP3+Idx+G+qn6FsvymMndg8K9ZtSkj1G/Cis528woNoHTEneRNF+MrWatq4dN/a7bn3FNh5nyll5t5i4TBWZUL1B/aVLM3ujur5C/WKKxzT0cYjFar1waFE7do+8cflU9wdW+B3y5si5HoYSkKdBAijfbaWPNmO1j1MyNpzIpERAREQEREBERAREQEREBERAREQEREDqq0VcFWUMDvBAI+Bkdx+YeTq1y2GRSd5p3pnx7BG2SeIFc4rRHg2uUq4hNu7WRgByGsl/iTPDX0Op/Z4x19umr/usstSIFU0NDqjv4xiPyUgh/adp7qGiHCDv18Q3gaa/HsGWRECJ4HR7k2luw4c771GZ/kxt8pJcNhUprqoiovJFCj4Cd8QEREBERAREQEREBERAREQEREBERAREQEREBERAREQEREBERAREQEREBERAREQEREBERAREQP/2Q==;" vertex="1" parent="wfkHhlJccwyZcgHeUHSA-79">
          <mxGeometry x="62.75" y="154.75" width="94.5" height="94.5" as="geometry" />
        </mxCell>
        <mxCell id="wfkHhlJccwyZcgHeUHSA-80" value="Fetch TokenURI&amp;nbsp;" style="text;html=1;strokeColor=none;fillColor=none;align=center;verticalAlign=middle;whiteSpace=wrap;rounded=0;" vertex="1" parent="1">
          <mxGeometry y="565" width="180" height="30" as="geometry" />
        </mxCell>
        <mxCell id="wfkHhlJccwyZcgHeUHSA-81" value="Token Metadata" style="text;html=1;strokeColor=none;fillColor=none;align=center;verticalAlign=middle;whiteSpace=wrap;rounded=0;flipV=0;" vertex="1" parent="1">
          <mxGeometry x="5.5" y="595" width="130" height="30" as="geometry" />
        </mxCell>
        <mxCell id="wfkHhlJccwyZcgHeUHSA-82" value="" style="endArrow=classic;startArrow=classic;html=1;rounded=1;" edge="1" parent="1">
          <mxGeometry width="50" height="50" relative="1" as="geometry">
            <mxPoint x="-20" y="594" as="sourcePoint" />
            <mxPoint x="210" y="590" as="targetPoint" />
          </mxGeometry>
        </mxCell>
      </root>
    </mxGraphModel>
  </diagram>
  <diagram id="V0CYZoT-j0BMHVNO7wv1" name="第 3 页">
    <mxGraphModel dx="886" dy="659" grid="1" gridSize="10" guides="1" tooltips="1" connect="1" arrows="1" fold="1" page="1" pageScale="1" pageWidth="827" pageHeight="1169" math="0" shadow="0">
      <root>
        <mxCell id="0" />
        <mxCell id="1" parent="0" />
      </root>
    </mxGraphModel>
  </diagram>
</mxfile>
